# xmcd
#
# Track frame offsets: 
#        150
#        16275
#        30496
#        44865
#        60587
#        78246
#        92257
#        108356
#        123995
#        137298
#        152510
#        172913
#
# Disc length: 2600 seconds
#
# Revision: 0
# Processed by: cddbd v1.5.2PL0 Copyright (c) Steve Scherf et al.
# Submitted via: ExactAudioCopy v1.1
#
DISCID=830a260c
DTITLE=Buffalo Skinners, The - The other nine-to-five
DYEAR=2015
DGENRE=Country
TTITLE0=Lose My Soul
TTITLE1=Where Were You?
TTITLE2=California Bound
TTITLE3=Rosie
TTITLE4=Going Home
TTITLE5=You're To Blame
TTITLE6=The City Has Lost All Its Charm
TTITLE7=Brother
TTITLE8=You Make Your Own Life Hard
TTITLE9=She Makes A Fool Of Me
TTITLE10=He's Troubled
TTITLE11=One Time Around
EXTD=
EXTT0=
EXTT1=
EXTT2=
EXTT3=
EXTT4=
EXTT5=
EXTT6=
EXTT7=
EXTT8=
EXTT9=
EXTT10=
EXTT11=
PLAYORDER=
